Coordinates
version=1
nRows=5
nColumns=40
inDegrees=yes

Units are S.I. units (second, meters, Newtons, ...)
If the header above contains a line with 'inDegrees', this indicates whether rotational values are in degrees (yes) or radians (no).

endheader
time	pelvis_tilt	pelvis_list	pelvis_rotation	pelvis_tx	pelvis_ty	pelvis_tz	hip_flexion_r	hip_adduction_r	hip_rotation_r	knee_angle_r	knee_angle_r_beta	ankle_angle_r	subtalar_angle_r	mtp_angle_r	hip_flexion_l	hip_adduction_l	hip_rotation_l	knee_angle_l	knee_angle_l_beta	ankle_angle_l	subtalar_angle_l	mtp_angle_l	lumbar_extension	lumbar_bending	lumbar_rotation	arm_flex_r	arm_add_r	arm_rot_r	elbow_flex_r	pro_sup_r	wrist_flex_r	wrist_dev_r	arm_flex_l	arm_add_l	arm_rot_l	elbow_flex_l	pro_sup_l	wrist_flex_l	wrist_dev_l
      1.23500000	     -9.33056865	      7.51839694	      8.86486611	      0.94310469	      0.88774447	      0.21706320	     40.06932060	    -12.07207956	    -11.01399416	     11.59934872	      0.20244683	      6.01052392	     -6.08184672	      0.00000000	    -10.02292277	      7.03969677	    -10.40322006	      9.51994807	      0.16615444	     15.25970881	     11.60479696	      0.00000000	      0.31418383	     -7.37957647	      1.90583297	     20.51331252	     -9.21516557	     20.51331252	     71.85441017	     45.27487055	      0.00000000	      0.00000000	     20.51331252	     -9.21516557	     20.51331252	     71.85441017	     45.27487055	      0.00000000	      0.00000000
      1.24000000	     -8.72724380	      7.02464460	      9.10255359	      0.95088896	      0.88834112	      0.21697389	     39.04248956	    -11.66346073	    -11.23088465	     11.54621877	      0.20151953	      5.51141595	     -6.55371156	      0.00000000	    -10.73596289	      6.15621128	    -10.57759110	     10.16681258	      0.17744435	     15.06750042	     11.99028356	      0.00000000	     -0.27599608	     -6.61043471	      1.50783421	     20.59717425	     -9.24690530	     20.59717425	     71.88810876	     45.26678090	      0.00000000	      0.00000000	     20.59717425	     -9.24690530	     20.59717425	     71.88810876	     45.26678090	      0.00000000	      0.00000000
      1.24500000	     -8.61385114	      6.88391885	      9.14150595	      0.95874858	      0.88800268	      0.21750614	     38.86998580	    -11.49282945	    -11.03226304	     12.06446977	      0.21056472	      5.28984654	     -6.86987106	      0.00000000	    -11.11324057	      5.79996482	    -10.49935674	     10.54495973	      0.18404427	     14.60621754	     11.89033910	      0.00000000	     -0.31785319	     -6.36977462	      1.40861178	     20.60542239	     -9.25002328	     20.60542239	     71.89140864	     45.26599744	      0.00000000	      0.00000000	     20.60542239	     -9.25002328	     20.60542239	     71.89140864	     45.26599744	      0.00000000	      0.00000000
      1.25000000	     -8.23734874	      6.66291328	      9.23258746	      0.96653813	      0.88816705	      0.21791875	     38.40146801	    -11.27582753	    -11.09325738	     12.65143754	      0.22080924	      4.79164824	     -7.58058015	      0.00000000	    -11.64963705	      5.28194795	    -10.57175418	     11.09749611	      0.19368785	     14.09266815	     11.69219246	      0.00000000	     -0.67011789	     -5.99326407	      1.23689185	     20.63146785	     -9.25986635	     20.63146785	     71.90181636	     45.26353557	      0.00000000	      0.00000000	     20.63146785	     -9.25986635	     20.63146785	     71.90181636	     45.26353557	      0.00000000	      0.00000000
      1.25500000	     -7.87253686	      6.35277748	      9.29519435	      0.97452140	      0.88841196	      0.21834357	     37.83156293	    -10.93051879	    -11.10878765	     13.06342512	      0.22799978	      4.22032940	     -8.21347463	      0.00000000	    -12.17256381	      4.68348777	    -10.58751583	     11.63968860	      0.20315089	     13.52669151	     11.56605910	      0.00000000	     -0.95155643	     -5.51240488	      1.00854943	     20.66340389	     -9.27192839	     20.66340389	     71.91454881	     45.26054222	      0.00000000	      0.00000000	     20.66340389	     -9.27192839	     20.66340389	     71.91454881	     45.26054222	      0.00000000	      0.00000000
